HIERARCHY
ROOT pelvis
{
  OFFSET 0 0 0
  CHANNELS 6 Xposition Yposition Zposition Zrotation Xrotation Yrotation
  JOINT pelvis_right_femur
  {
    OFFSET -11.43119 -3.542788 0.2090856
    CHANNELS 3 Zrotation Xrotation Yrotation
    JOINT right_femur_tibia
    {
      OFFSET -1.028693 -40.73281 5
      CHANNELS 3 Zrotation Xrotation Yrotation
      JOINT right_tibia_foot
      {
        OFFSET -0.5013517 -42.05707 -5
        CHANNELS 3 Zrotation Xrotation Yrotation
        End Site
        {
          OFFSET 0 -5 10
        }
      }
    }
  }
  JOINT pelvis_left_femur
  {
    OFFSET 11.43119 -3.542788 0.2090856
    CHANNELS 3 Zrotation Xrotation Yrotation
    JOINT left_femur_tibia
    {
      OFFSET 1.028693 -40.73281 5
      CHANNELS 3 Zrotation Xrotation Yrotation
      JOINT left_tibia_foot
      {
        OFFSET 0.3200228 -42.98253 -5
        CHANNELS 3 Zrotation Xrotation Yrotation
        End Site
        {
          OFFSET 0 -5 10
        }
      }
    }
  }
  JOINT pelvis_spine1
  {
    OFFSET 0 8.64413 -3.209807
    CHANNELS 3 Zrotation Xrotation Yrotation
    JOINT spine1
    {
      OFFSET 0 29.53957 -1.762685
      CHANNELS 3 Zrotation Xrotation Yrotation
      JOINT spine2
      {
        OFFSET 0 16.36153 -0.1422377
        CHANNELS 3 Zrotation Xrotation Yrotation
        JOINT neck
        {
          OFFSET 0 11.60093 5
          CHANNELS 3 Zrotation Xrotation Yrotation
          End Site
          {
            OFFSET 0 20 0
          }
        }
      }
      JOINT right_manubrium
      {
        OFFSET -4.671311 15.89868 4
        CHANNELS 3 Zrotation Xrotation Yrotation
        JOINT right_clavicle
        {
          OFFSET -13.601 1.573642 -2.74176
          CHANNELS 3 Zrotation Xrotation Yrotation
          JOINT right_humerus
          {
            OFFSET -0.06331682 -27.72702 2.252146
            CHANNELS 3 Zrotation Xrotation Yrotation
            JOINT right_radius
            {
              OFFSET -0.5696302 -23.92083 0.4042105
              CHANNELS 3 Zrotation Xrotation Yrotation
              End Site
              {
                OFFSET 0 -15 0
              }
            }
          }
        }
      }
      JOINT left_manubrium
      {
        OFFSET 4.671311 15.89868 4
        CHANNELS 3 Zrotation Xrotation Yrotation
        JOINT left_clavicle
        {
          OFFSET 13.601 1.573642 -2.74176
          CHANNELS 3 Zrotation Xrotation Yrotation
          JOINT left_humerus
          {
            OFFSET 0.000209614 -29.01858 1.101395
            CHANNELS 3 Zrotation Xrotation Yrotation
            JOINT left_radius
            {
              OFFSET -0.2288314 -24.59216 1.790347
              CHANNELS 3 Zrotation Xrotation Yrotation
              End Site
              {
                OFFSET 0 -15 0
              }
            }
          }
        }
      }
    }
  }
}
MOTION
Frames: 22
Frame Time: 0.0416666666667
0.09403071 48.33005 0.06502079 -4.141004 -20.62003 -0.6388517 -51.91777 -59.84795 -51.62528 -180 85.60827 -180 5.535124 5.567174 -0.7565156 68.92994 -50.74716 63.35827 -180 79.92795 -180 -4.680393 3.280761 -20.10544 2.336717 23.09993 -2.176563 5.755135 13.63442 -8.879956 -8.396747 10.41205 7.565547 6.872367 -29.85214 2.411361 22.53082 -10.9447 21.69418 -61.60115 -30.18244 10.38539 0 -68.39455 0 18.32044 5.961899 36.85 -28.00978 -29.18745 -6.231112 53.24632 -24.24732 -25.25611 0 -74.01336 0 -13.53667 -6.909213 -2.413686
0.08250081 48.31281 0.0599059 -4.289782 -20.45501 -0.8297799 -51.85247 -60.07592 -51.77661 -180 85.63363 -180 5.541925 5.581575 -0.7955038 69.42746 -50.69592 63.73717 -180 79.86167 -180 -4.698877 3.312957 -20.14088 2.542209 22.93382 -2.630168 5.608939 13.60284 -8.703255 -8.449083 10.41041 7.800249 6.691796 -29.72952 2.544156 22.54624 -10.76184 21.96257 -61.26276 -30.29644 10.3103 0 -68.33881 0 18.38907 6.453046 37.36446 -28.01699 -28.89844 -6.519457 52.73095 -24.71191 -25.82281 0 -73.80523 0 -12.66852 -8.197535 -0.1949599
0.06501958 48.30121 0.06474961 -4.389841 -20.30765 -1.027331 -51.87782 -60.2587 -51.98409 -180 85.64735 -180 5.523088 5.602511 -0.7384237 69.76778 -50.68913 63.94137 -180 79.79654 -180 -4.748637 3.304453 -20.07625 2.644277 22.80998 -3.022332 5.468898 13.60798 -8.57244 -8.38657 10.34961 7.975272 6.546518 -29.6819 2.677371 22.56108 -10.59378 22.24326 -60.95801 -30.42924 10.23929 0 -68.31664 0 18.45275 6.885322 37.8198 -28.0484 -28.62097 -6.677802 52.37878 -24.94858 -26.17881 0 -73.51169 0 -11.75487 -9.272944 1.821732
0.025599 48.28942 0.0604382 -4.43903 -20.18513 -1.213031 -51.92215 -60.40873 -52.18458 -180 85.68493 -180 5.494814 5.621007 -0.6610727 69.97912 -50.71193 64.00785 -180 79.77853 -180 -4.794751 3.272883 -20.0095 2.665682 22.70282 -3.297678 5.289713 13.61999 -8.430295 -8.237017 10.30708 8.112557 6.417867 -29.63761 2.830909 22.53528 -10.43246 22.50563 -60.70185 -30.50466 10.14091 0 -68.2623 0 18.49996 7.28738 38.21366 -28.07827 -28.46724 -6.68189 52.26525 -25.04033 -26.21966 0 -73.34761 0 -10.84763 -10.23494 3.568151
-0.0118021 48.27905 0.05331709 -4.480472 -20.06176 -1.432407 -52.00691 -60.55882 -52.46444 -180 85.72304 -180 5.469796 5.662317 -0.5784291 70.181 -50.7155 64.08491 -180 79.7578 -180 -4.853843 3.249903 -19.89955 2.695313 22.55976 -3.458098 5.088689 13.62519 -8.281046 -8.10476 10.29773 8.292009 6.247973 -29.54417 3.057577 22.43164 -10.27178 22.73248 -60.49986 -30.52609 10.04245 0 -68.22303 0 18.54631 7.646913 38.55826 -28.00653 -28.33722 -6.556089 52.3157 -25.0322 -26.14262 0 -73.49747 0 -10.02453 -11.16311 5.041067
-0.04708861 48.27068 0.07285616 -4.494659 -19.97133 -1.607129 -52.18278 -60.61716 -52.80663 -180 85.71572 -180 5.439974 5.705778 -0.4436432 70.29556 -50.73094 64.08507 -180 79.71178 -180 -4.921609 3.21415 -19.74352 2.713873 22.45011 -3.600752 4.919138 13.62638 -8.184168 -8.011417 10.24096 8.623113 6.040791 -29.447 3.496194 22.30473 -10.11191 22.95012 -60.30763 -30.52158 9.947535 0 -68.23854 0 18.58548 7.968985 38.8579 -27.82421 -28.22033 -6.394235 52.62157 -24.86616 -25.86177 0 -73.66876 0 -9.3077 -12.01902 6.288458
-0.07334716 48.273 0.0981321 -4.482479 -19.87836 -1.751149 -52.38826 -60.65591 -53.14015 -180 85.70954 -180 5.410328 5.747271 -0.3250434 70.34459 -50.76666 64.04215 -180 79.68172 -180 -4.972307 3.187483 -19.61558 2.751087 22.33504 -3.695092 4.785638 13.59823 -8.099633 -8.040882 10.16648 9.287274 5.776113 -29.29711 4.342463 22.18103 -9.956204 23.10568 -60.13662 -30.50662 9.861233 0 -68.2692 0 18.6197 8.272994 39.11451 -27.55717 -28.14646 -6.239878 53.11964 -24.56956 -25.3621 0 -74.02395 0 -8.665488 -12.85938 7.320087
-0.08588414 48.27943 0.1015521 -4.456588 -19.78722 -1.874095 -52.58641 -60.71446 -53.41753 -180 85.7225 -180 5.395517 5.779475 -0.2447123 70.3698 -50.79311 64.02626 -180 79.68377 -180 -5.009699 3.172673 -19.54137 2.861172 22.22247 -3.705744 4.648452 13.57318 -7.962691 -8.248681 10.09504 10.48534 5.464348 -29.05458 5.824849 22.05946 -9.874544 23.08796 -60.01241 -30.49237 9.74221 0 -68.35433 0 18.64768 8.556544 39.3315 -27.19691 -28.11068 -5.999432 53.81029 -24.08556 -24.576 0 -74.68181 0 -8.073153 -13.70863 8.160493
-0.08999509 48.28389 0.1132319 -4.401651 -19.74782 -1.933024 -52.77806 -60.71185 -53.63026 -180 85.71331 -180 5.375415 5.785917 -0.1551631 70.30068 -50.80761 63.96403 -180 79.6804 -180 -5.049748 3.145856 -19.47332 3.041683 22.14941 -3.613494 4.493218 13.62872 -7.781996 -8.609983 9.998903 12.27054 5.120219 -28.72367 8.021646 21.95666 -9.880586 22.83307 -59.93183 -30.49535 9.580869 0 -68.58121 0 18.66744 8.802972 39.51985 -26.80639 -28.13535 -5.629468 54.75464 -23.29252 -23.40463 0 -75.39987 0 -7.547477 -14.55097 8.854133
-0.09641271 48.27728 0.1162727 -4.328204 -19.71754 -1.942816 -52.99016 -60.72577 -53.82249 -180 85.68103 -180 5.363994 5.797328 -0.1050368 70.23847 -50.80749 63.97524 -180 79.68346 -180 -5.087159 3.130024 -19.4288 3.288389 22.08422 -3.377095 4.333337 13.71475 -7.565818 -9.065881 9.963907 14.50411 4.765839 -28.27553 10.76447 21.84901 -9.969254 22.36137 -59.88792 -30.51963 9.398734 0 -68.9313 0 18.68672 9.017974 39.6816 -26.36676 -28.33185 -5.109099 55.94338 -22.26964 -21.82464 0 -76.11289 0 -7.045289 -15.36949 9.429863
-0.09758326 48.27117 0.1058182 -4.244661 -19.69479 -1.885093 -53.18081 -60.73003 -53.95263 -180 85.6665 -180 5.366068 5.786869 -0.09790357 70.13381 -50.85566 63.96554 -180 79.72189 -180 -5.108031 3.132654 -19.41682 3.572087 22.03686 -3.02037 4.212885 13.83657 -7.358341 -9.532409 10.01989 16.90607 4.416814 -27.74163 13.7199 21.71424 -10.13612 21.75742 -59.91053 -30.52641 9.159525 0 -69.34853 0 18.70421 9.214288 39.81504 -25.82516 -28.73533 -4.437308 57.3421 -21.08794 -19.89725 0 -76.5698 0 -6.575785 -16.11616 9.933882
-0.09261626 48.28154 0.08714419 -4.170888 -19.66872 -1.766364 -53.33509 -60.70333 -54.02076 -180 85.67131 -180 5.363054 5.769923 -0.1050652 70.01262 -50.95336 63.94133 -180 79.77894 -180 -5.111522 3.13438 -19.39312 3.873484 21.99964 -2.577629 4.170738 13.97688 -7.232527 -9.945222 10.16949 19.22542 4.090644 -27.16901 16.58044 21.56581 -10.34088 21.08992 -60.00718 -30.50461 8.87392 0 -69.83417 0 18.72393 9.38113 39.92924 -25.19287 -29.3612 -3.642867 58.89231 -19.78564 -17.70255 0 -76.51198 0 -6.144841 -16.74823 10.40261
-0.08301034 48.29219 0.0767381 -4.108841 -19.62 -1.608057 -53.50057 -60.67757 -54.11514 -180 85.66155 -180 5.384391 5.75611 -0.1479928 69.92783 -51.09315 63.9706 -180 79.82317 -180 -5.102156 3.159852 -19.37955 4.145108 21.93949 -2.031748 4.245415 14.12716 -7.241138 -10.26564 10.4473 21.27809 3.821157 -26.56668 19.11576 21.38502 -10.56082 20.42964 -60.15351 -30.46161 8.580238 0 -70.3572 0 18.75816 9.523152 40.02571 -24.45897 -30.21394 -2.770577 60.50692 -18.42161 -15.32911 0 -75.69525 0 -5.738489 -17.21905 10.89653
-0.01982821 48.36039 0.1320764 -4.076889 -19.591 -1.391096 -53.59825 -60.49151 -54.11004 -180 85.66507 -180 5.402687 5.715804 -0.2085177 69.71147 -51.23812 63.85801 -180 79.85809 -180 -5.071562 3.17985 -19.38965 4.37193 21.79907 -1.450502 4.45881 14.37386 -7.419435 -10.44498 10.80976 22.92326 3.630151 -26.01406 21.16302 21.22404 -10.73848 19.82752 -60.34094 -30.34533 8.280805 0 -70.85637 0 18.80128 9.637369 40.1063 -23.73299 -31.25286 -1.92679 62.09617 -17.03702 -12.87506 0 -74.04042 0 -5.375121 -17.51059 11.43352
-0.06593527 48.30795 0.0597862 -4.056921 -19.56247 -1.27575 -53.66785 -60.5898 -54.14739 -180 85.66657 -180 5.45767 5.703738 -0.3088162 69.82552 -51.37937 64.011 -180 79.91689 -180 -5.032762 3.231235 -19.40008 4.473593 21.99638 -1.323461 4.52262 14.28343 -7.212132 -10.5398 11.16331 24.16127 3.476608 -25.45404 22.67643 21.07178 -10.85752 19.43694 -60.44978 -30.28155 8.069505 0 -71.3959 0 18.85784 9.721536 40.17281 -22.66365 -32.5376 -0.9637281 63.75969 -15.73109 -10.36183 0 -71.52919 0 -5.030235 -17.6531 12.00221
-0.0649667 48.32511 0.04151135 -4.08369 -19.5244 -1.084008 -53.6933 -60.52731 -54.1393 -180 85.65652 -180 5.517795 5.671082 -0.4232037 69.88997 -51.53294 64.08409 -180 79.95175 -180 -4.97836 3.280591 -19.43827 4.467397 22.12096 -1.172985 4.784352 14.29017 -7.226733 -10.51829 11.51846 25.02921 3.40046 -25.03593 23.73643 20.93308 -10.93832 19.12447 -60.60291 -30.11948 7.83526 0 -71.8883 0 18.92203 9.766608 40.22688 -21.58881 -33.92134 -0.2382444 65.31415 -14.58224 -7.989953 0 -68.13171 0 -4.773949 -17.64487 12.59528
-0.08248128 48.31923 0.05568533 -4.153639 -19.47209 -0.8416484 -53.70308 -60.46131 -54.16129 -180 85.62947 -180 5.596013 5.638146 -0.5620602 70.10072 -51.69856 64.29304 -180 79.95152 -180 -4.920422 3.330426 -19.49844 4.340018 22.19059 -0.9356996 5.228474 14.3139 -7.417242 -10.43065 11.83223 25.63959 3.375579 -24.74955 24.4598 20.78915 -11.00598 18.92017 -60.80925 -29.90803 7.567618 0 -72.38153 0 18.99627 9.763386 40.27552 -20.50503 -35.3619 0.1843155 66.73947 -13.63603 -5.826299 0 -63.85071 0 -4.620119 -17.50943 13.22061
-0.08466437 48.32867 0.08369609 -4.263895 -19.39156 -0.5616041 -53.66859 -60.36684 -54.156 -180 85.61774 -180 5.685229 5.593758 -0.6992524 70.34512 -51.89455 64.52214 -180 79.94245 -180 -4.863493 3.366584 -19.56521 4.128841 22.22154 -0.6468931 5.840473 14.37979 -7.759605 -10.29222 12.06933 26.09196 3.393061 -24.61361 24.97215 20.65738 -11.09368 18.82679 -61.06777 -29.65565 7.257559 0 -72.84306 0 19.07327 9.70899 40.31753 -19.48993 -36.79775 0.2193706 67.99919 -12.90351 -3.912296 0 -58.78547 0 -4.60228 -17.2466 13.84971
-0.02673577 48.39173 0.09943907 -4.424665 -19.28324 -0.275106 -53.53579 -60.21731 -54.04969 -180 85.6602 -180 5.768047 5.527135 -0.8499428 70.54279 -52.11446 64.70207 -180 79.95745 -180 -4.797785 3.388915 -19.65436 3.856942 22.1743 -0.3700071 6.582221 14.57164 -8.258712 -10.149 12.21998 26.46877 3.425606 -24.61689 25.36061 20.54918 -11.19111 18.85545 -61.3963 -29.36238 6.885503 0 -73.22036 0 19.14968 9.621165 40.35102 -18.6265 -38.16974 -0.1667734 69.06275 -12.36207 -2.264827 0 -53.14647 0 -4.735381 -16.91075 14.45853
0.02351383 48.4165 0.135889 -4.620478 -19.13081 -0.03452554 -53.42871 -60.18094 -53.98802 -180 85.69556 -180 5.870672 5.475664 -1.029996 70.91632 -52.32553 65.05237 -180 79.93178 -180 -4.747794 3.394274 -19.73383 3.555965 22.17495 -0.1424618 7.302217 14.60257 -8.721982 -10.01959 12.28518 26.81609 3.468957 -24.69196 25.67367 20.45787 -11.27417 18.89008 -61.67499 -29.07233 6.571418 0 -73.58374 0 19.23357 9.489649 40.38055 -17.83606 -39.44631 -0.6614507 69.91341 -11.92802 -0.8535784 0 -47.42407 0 -5.002919 -16.59086 14.99118
0.1112305 48.44336 0.2082101 -4.835541 -18.98867 0.1805306 -53.31005 -60.1246 -53.88967 -180 85.70997 -180 5.962464 5.399861 -1.198339 71.25065 -52.52875 65.34322 -180 79.85886 -180 -4.707763 3.374133 -19.8176 3.266302 22.19943 0.01702397 7.947634 14.56936 -9.18133 -9.907777 12.30751 27.13613 3.519935 -24.82211 25.92538 20.41845 -11.32796 18.9455 -61.90637 -28.79136 6.30284 0 -73.89906 0 19.32294 9.332375 40.40594 -17.27748 -40.70919 -1.262726 70.5564 -11.59191 0.4429227 0 -41.9143 0 -5.377844 -16.33293 15.43024
0.1978898 48.47398 0.2706062 -5.061154 -18.8271 0.3366393 -53.13911 -60.14283 -53.74448 -180 85.73641 -180 6.055393 5.32352 -1.380554 71.62314 -52.72321 65.64382 -180 79.79045 -180 -4.668093 3.344401 -19.90509 2.987321 22.19754 0.099971 8.455189 14.53989 -9.561821 -9.80724 12.34971 27.42947 3.594749 -24.93929 26.12873 20.44611 -11.37019 19.02216 -62.05905 -28.54232 6.083366 0 -74.11437 0 19.40152 9.166946 40.41925 -16.92969 -41.94477 -1.905157 71.04123 -11.32141 1.64465 0 -36.88952 0 -5.829289 -16.1751 15.75157
